<svg width="100" height="90" viewBox="0 0 100 90" fill="none" xmlns="http://www.w3.org/2000/svg">
<g clip-path="url(#clip0_25_261)">
<path d="M74 24H26C17.1634 24 10 31.1634 10 40V72C10 80.8366 17.1634 88 26 88H74C82.8366 88 90 80.8366 90 72V40C90 31.1634 82.8366 24 74 24Z" fill="#E6E6E6" stroke="#333333" stroke-width="4"/>
<path d="M50 24V8" stroke="#333333" stroke-width="4"/>
<path d="M50 12C53.3137 12 56 9.31371 56 6C56 2.68629 53.3137 0 50 0C46.6863 0 44 2.68629 44 6C44 9.31371 46.6863 12 50 12Z" fill="#FF5252"/>
<path d="M34 60C38.4183 60 42 56.4183 42 52C42 47.5817 38.4183 44 34 44C29.5817 44 26 47.5817 26 52C26 56.4183 29.5817 60 34 60Z" fill="#333333"/>
<path d="M66 60C70.4183 60 74 56.4183 74 52C74 47.5817 70.4183 44 66 44C61.5817 44 58 47.5817 58 52C58 56.4183 61.5817 60 66 60Z" fill="#333333"/>
<path d="M65 68H35C32.2386 68 30 70.2386 30 73C30 75.7614 32.2386 78 35 78H65C67.7614 78 70 75.7614 70 73C70 70.2386 67.7614 68 65 68Z" fill="#333333"/>
<path d="M6 62C9.31371 62 12 59.3137 12 56C12 52.6863 9.31371 50 6 50C2.68629 50 0 52.6863 0 56C0 59.3137 2.68629 62 6 62Z" fill="#999999"/>
<path d="M94 62C97.3137 62 100 59.3137 100 56C100 52.6863 97.3137 50 94 50C90.6863 50 88 52.6863 88 56C88 59.3137 90.6863 62 94 62Z" fill="#999999"/>
</g>
<defs>
<clipPath id="clip0_25_261">
<rect width="100" height="90" fill="white"/>
</clipPath>
</defs>
</svg>
